<?xml version="1.0" encoding="UTF-8"?>
<svg id="Capa_1" xmlns="http://www.w3.org/2000/svg" version="1.1" viewBox="0 0 283.5 283.5">
  <!-- Generator: Adobe Illustrator 29.0.0, SVG Export Plug-In . SVG Version: 2.1.0 Build 186)  -->
  <defs>
    <style>
      .st0 {
        fill: #211915;
      }
    </style>
  </defs>
  <path class="st0" d="M254.8,275.2H28.7c-11.3,0-20.4-9.2-20.4-20.4V28.7c0-11.3,9.2-20.4,20.4-20.4h226.1c11.3,0,20.4,9.2,20.4,20.4v226.1c0,11.3-9.2,20.4-20.4,20.4ZM28.7,22.3c-3.5,0-6.4,2.9-6.4,6.4v226.1c0,3.5,2.9,6.4,6.4,6.4h226.1c3.5,0,6.4-2.9,6.4-6.4V28.7c0-3.5-2.9-6.4-6.4-6.4H28.7Z"/>
  <path d="M201.6,65.9c2-.4,4.3-.2,5.9,1.2,7.2,8.8,19,16.9,25.7,25.7s2.1,5,.7,7.6l-116.4,116.4c-2.3,1.3-5.6,1.1-7.6-.7l-60.5-60.8c-1.3-2.2-1.1-5.3.5-7.4,8.8-7.2,16.9-19,25.7-25.7,2.6-2,5.7-2.2,8.4-.2l29.6,29.6,1.1.2,84.3-84.3c.7-.7,1.7-1.4,2.7-1.6Z"/>
</svg>